# xmcd CD database file
#
# Track frame offsets:
#	150
#	31300
#	53188
#	69669
#	87691
#	103072
#	118957
#	137944
#	156321
#	183902
#	202363
#	218127
#	234196
#	264879
#	283747
#
# Disc length: 4035 seconds
#
# Revision: 1
# Processed by: cddbd v1.5.2PL0 Copyright (c) Steve Scherf et al.
# Submitted via: CDex 1.70beta2
#
DISCID=ea0fc10f
DTITLE=Dionne Warwick - Track Of The Cat
DYEAR=1975
DGENRE=Soul
TTITLE0=Track Of The Cat (L.Creed-T.Bell)
TTITLE1=His House And Me (L.Creed-T.Bell)
TTITLE2=Ronnie Lee (L.Creed-T.Bell)
TTITLE3=World Of My Dreams (L.Creed-T.Bell)
TTITLE4=Jealousy (Marshall-Wortham-Barrett)
TTITLE5=This Is Love (Marshall-Bell)
TTITLE6=Love Me One More Time (L.Creed-T.Bell)
TTITLE7=Once You Hit The Road (Jefferson-Simmons)
TTITLE8=I Didn't Mean To Love You (single version) (Butler-Philipp)
TTITLE9=He's Not For You
TTITLE10=Once You Hit The Road (Promotion Single Mono Version) (Jefferson-Simmons)
TTITLE11=Once You Hit The Road (Single Stereo Version) (Jefferson-Simmons)
TTITLE12=Once You Hit The Road (Special Disco Mix) (Jefferson-Simmons)
TTITLE13=I Didn't Mean To Love You (Promotion Single Mono Version)
TTITLE14=I Didn't Mean To Love You (Promotion Single Stereo Version)
EXTD=YEAR: 1975
EXTT0=
EXTT1=
EXTT2=
EXTT3=
EXTT4=
EXTT5=
EXTT6=
EXTT7=
EXTT8=
EXTT9=
EXTT10=
EXTT11=
EXTT12=
EXTT13=
EXTT14=
PLAYORDER=
